<?xml version="1.0" encoding="UTF-8"?>
<svg xmlns="http://www.w3.org/2000/svg" xmlns:xlink="http://www.w3.org/1999/xlink" width="800px" height="800px" viewBox="0 0 800 800" version="1.1">
  <defs>
    <linearGradient id="linear0" gradientUnits="userSpaceOnUse" x1="0" y1="0" x2="1200" y2="0" gradientTransform="matrix(0.666667,0,0,0.666667,0,0)">
      <stop offset="0" style="stop-color:rgb(100%,89.803922%,80.784314%);stop-opacity:1;" />
      <stop offset="0.142857" style="stop-color:rgb(100%,85.882353%,81.568627%);stop-opacity:1;" />
      <stop offset="0.285714" style="stop-color:rgb(100%,82.745098%,83.921569%);stop-opacity:1;" />
      <stop offset="0.428571" style="stop-color:rgb(97.647059%,80.392157%,87.058824%);stop-opacity:1;" />
      <stop offset="0.571429" style="stop-color:rgb(92.156863%,79.215686%,90.588235%);stop-opacity:1;" />
      <stop offset="0.714286" style="stop-color:rgb(84.313725%,78.431373%,92.54902%);stop-opacity:1;" />
      <stop offset="0.857143" style="stop-color:rgb(74.901961%,78.039216%,92.941176%);stop-opacity:1;" />
      <stop offset="1" style="stop-color:rgb(65.490196%,78.039216%,90.588235%);stop-opacity:1;" />
    </linearGradient>
  </defs>
  <g id="surface1">
    <path style=" stroke:none;fill-rule:evenodd;fill:url(#linear0);" d="M 545.667969 255.078125 C 512.699219 257.742188 480.632812 272.191406 456.59375 295.210938 C 443.371094 307.871094 434.808594 319.699219 426.339844 337 C 415.929688 358.261719 411.867188 375.832031 411.769531 400 C 411.667969 425.191406 415.867188 444.398438 426.273438 466.347656 C 443.742188 503.199219 477.78125 530.65625 519.332031 541.417969 C 542.742188 547.480469 571.417969 547.421875 597.332031 541.257812 C 604.515625 539.546875 618.070312 535.347656 619.167969 534.488281 C 619.824219 533.976562 620 519.054688 620 463.894531 L 620 393.949219 L 613.832031 394.140625 L 607.667969 394.332031 L 607.332031 423.667969 L 607 453 L 600 455.800781 C 585.347656 461.660156 573.425781 463.65625 556.039062 463.15625 C 546.835938 462.890625 543.191406 462.507812 539 461.355469 C 524.769531 457.460938 512.332031 449.746094 505.691406 440.699219 C 500.367188 433.445312 496.757812 424.65625 494.996094 414.648438 C 493.738281 407.511719 493.714844 394.277344 494.945312 387.847656 C 499.726562 362.863281 521.175781 341.96875 546.144531 337.980469 C 553.535156 336.796875 567.613281 337.46875 573.957031 339.304688 C 587.105469 343.109375 598.917969 350.957031 606.722656 361.074219 C 608.246094 363.050781 609.761719 364.667969 610.085938 364.667969 C 611.007812 364.667969 619.253906 359.09375 619.597656 358.238281 C 619.972656 357.308594 613.714844 349.511719 609.070312 345.117188 C 599.664062 336.21875 587.089844 329.414062 574.316406 326.296875 C 567.425781 324.617188 551.890625 324.253906 544.195312 325.589844 C 516.289062 330.4375 493.441406 350.34375 484.808594 377.332031 C 481.910156 386.398438 481.09375 393.121094 481.511719 404.578125 C 482.007812 418.265625 484.046875 426.828125 489.414062 437.773438 C 492.757812 444.589844 495.539062 448.519531 500.835938 453.898438 C 511.273438 464.5 526.449219 472.199219 542.332031 474.957031 C 550.347656 476.34375 567.8125 476.328125 577.546875 474.921875 C 585.207031 473.816406 598.671875 470.277344 603.71875 468.046875 C 605.285156 467.351562 606.738281 466.960938 606.949219 467.171875 C 607.160156 467.382812 607.332031 469.558594 607.332031 472.003906 C 607.332031 477.035156 607.8125 476.566406 599.390625 479.742188 C 587.019531 484.410156 573.167969 486.769531 558 486.792969 C 545.222656 486.8125 537.710938 485.714844 527.558594 482.332031 C 507.820312 475.757812 490.949219 462.210938 481.496094 445.332031 C 477.429688 438.078125 473.902344 427.902344 471.910156 417.667969 C 470.511719 410.503906 470.699219 389.777344 472.226562 382.800781 C 475.859375 366.164062 483.996094 351.25 495.957031 339.292969 C 508.042969 327.21875 522.703125 319.21875 539.46875 315.558594 C 547.34375 313.839844 566.722656 313.855469 574.667969 315.585938 C 581.355469 317.046875 590.207031 320.078125 595.332031 322.675781 C 606.085938 328.113281 618.976562 338.667969 625.332031 347.238281 C 626.984375 349.460938 628.695312 351.292969 629.132812 351.308594 C 630.226562 351.34375 638.667969 345.390625 638.667969 344.585938 C 638.667969 343.191406 632.804688 336.015625 626.730469 329.96875 C 614.167969 317.46875 597.558594 308.0625 581 304.070312 C 571.273438 301.726562 564.820312 301.132812 553.285156 301.523438 C 537.480469 302.058594 528.1875 304.3125 514.121094 311.03125 C 488.003906 323.5 468.273438 347.410156 460.960938 375.460938 C 459.015625 382.921875 458.023438 391.453125 458.011719 400.839844 C 457.941406 454.140625 492.976562 492.839844 547 499.128906 C 554.988281 500.0625 557.84375 500.105469 566.832031 499.429688 C 578.597656 498.550781 590.542969 496.367188 600 493.367188 C 603.484375 492.261719 606.570312 491.351562 606.863281 491.34375 C 607.152344 491.339844 607.300781 493.632812 607.195312 496.445312 L 607 501.5625 L 602.332031 503.085938 C 597.160156 504.777344 585.691406 507.472656 578 508.800781 C 570.207031 510.144531 543.808594 509.9375 536.667969 508.472656 C 512.140625 503.441406 494.03125 494.050781 478.082031 478.082031 C 467.042969 467.035156 459.324219 454.984375 454.28125 440.921875 C 442.03125 406.796875 446.1875 369.421875 465.515625 339.816406 C 485.460938 309.277344 520.074219 290.691406 557 290.691406 C 582.070312 290.691406 605.917969 299.003906 625.667969 314.621094 C 630.636719 318.554688 640.589844 328.847656 644.136719 333.726562 C 646.078125 336.398438 647.894531 338.601562 648.175781 338.625 C 648.714844 338.667969 655.542969 334.382812 657.460938 332.796875 C 658.492188 331.945312 658.300781 331.476562 655.148438 327.101562 C 653.261719 324.480469 647.804688 318.421875 643.023438 313.644531 C 623.042969 293.660156 598.042969 281.675781 569.917969 278.585938 C 561.457031 277.65625 543.847656 278.195312 536 279.625 C 510.242188 284.3125 488.734375 295.707031 469.992188 314.59375 C 440.703125 344.117188 428.839844 385.292969 437.417969 427.667969 C 440.476562 442.773438 447.710938 459.804688 456.097656 471.648438 C 460.882812 478.402344 474.144531 492.1875 480.667969 497.179688 C 502.835938 514.164062 528.523438 522.621094 558.023438 522.65625 C 573.40625 522.671875 586.597656 520.910156 600.796875 516.949219 C 603.984375 516.0625 606.761719 515.332031 606.964844 515.332031 C 607.167969 515.332031 607.332031 517.449219 607.332031 520.035156 C 607.332031 524.71875 607.324219 524.738281 605.144531 525.648438 C 602.207031 526.875 593.886719 528.957031 585.332031 530.605469 C 540.148438 539.3125 496.117188 527.089844 464.074219 496.949219 C 443.285156 477.394531 429.460938 449.523438 425.246094 418.667969 C 424 409.542969 424.15625 389.984375 425.550781 380.917969 C 431.535156 341.925781 453.714844 308.128906 486.761719 287.632812 C 509.921875 273.273438 536.503906 266.324219 563.332031 267.613281 C 575.339844 268.1875 582.242188 269.292969 593.390625 272.425781 C 621.238281 280.246094 647.8125 298.765625 664.292969 321.832031 C 665.667969 323.757812 667.066406 325.332031 667.402344 325.332031 C 668.261719 325.332031 677.332031 319.242188 677.332031 318.664062 C 677.332031 317.949219 670.964844 309.535156 666.886719 304.867188 C 652.535156 288.429688 635.28125 275.777344 614.679688 266.585938 C 605.542969 262.507812 591.992188 258.527344 581.039062 256.699219 C 572.761719 255.320312 553.566406 254.4375 545.667969 255.078125 M 111.5 400.167969 L 111.667969 545 L 196 545.199219 C 254.882812 545.335938 282.246094 545.171875 286.667969 544.65625 C 321.144531 540.617188 355.46875 518.464844 375.839844 487.109375 C 389.164062 466.597656 397.226562 444.769531 400.75 419.667969 C 401.964844 410.992188 401.75 387.441406 400.371094 378.332031 C 397.550781 359.6875 393.285156 345.929688 385.417969 330.105469 C 376.617188 312.402344 363.003906 295.054688 348.507812 283.070312 C 335.292969 272.148438 318.34375 263.308594 302.414062 259.027344 C 288.554688 255.304688 289.398438 255.332031 196.746094 255.332031 L 111.328125 255.332031 L 111.5 400.167969 M 124.460938 268.425781 C 123.699219 269.1875 123.902344 532.523438 124.664062 532.777344 C 125.03125 532.898438 161.855469 532.839844 206.5 532.644531 C 296.15625 532.253906 289.644531 532.570312 303.667969 527.941406 C 311.648438 525.308594 325.753906 518.320312 332.207031 513.796875 C 350.378906 501.070312 363.878906 484.914062 373.980469 463.800781 C 384.289062 442.261719 388.273438 424.578125 388.273438 400.332031 C 388.273438 382.566406 386.6875 371.742188 381.90625 356.8125 C 367.289062 311.179688 335.222656 279.734375 293.234375 269.851562 C 287.019531 268.386719 286.769531 268.382812 205.960938 268.175781 C 161.390625 268.058594 124.714844 268.171875 124.460938 268.425781 M 137.5 280.441406 C 136.839844 280.707031 136.667969 305.320312 136.667969 400.375 L 136.667969 519.976562 L 138.226562 520.367188 C 139.082031 520.582031 172.308594 520.628906 212.058594 520.476562 C 281.929688 520.203125 284.53125 520.148438 290.332031 518.832031 C 316.695312 512.835938 338.003906 497.828125 354.285156 473.773438 C 364.507812 458.675781 371.519531 440.257812 374.761719 420 C 375.957031 412.511719 375.964844 388.222656 374.769531 380.667969 C 370.277344 352.222656 358.105469 327.511719 339.542969 309.148438 C 322.160156 291.953125 302.671875 282.695312 279.667969 280.707031 C 271.644531 280.011719 139.175781 279.765625 137.5 280.441406 M 149.652344 294.140625 C 149.472656 294.613281 149.402344 342.851562 149.496094 401.332031 L 149.667969 507.667969 L 213 507.847656 C 267.378906 508.003906 277.34375 507.882812 283.464844 506.996094 C 301.511719 504.382812 316.371094 496.546875 330.703125 482.097656 C 346.988281 465.671875 356.261719 447.132812 361.429688 420.667969 C 362.796875 413.679688 362.5625 386.460938 361.074219 379 C 358.398438 365.59375 355.300781 356.515625 349.660156 345.539062 C 344.089844 334.703125 338.5625 327.121094 330.050781 318.636719 C 317.433594 306.054688 303.292969 298.175781 287.332031 294.832031 C 283.035156 293.933594 273.058594 293.75 216.15625 293.53125 C 162.527344 293.328125 149.917969 293.441406 149.652344 294.140625 M 162.308594 306.832031 C 162.132812 307.292969 162.066406 349.816406 162.160156 401.332031 L 162.332031 495 L 219.332031 495.199219 C 259.097656 495.339844 277.84375 495.175781 281.332031 494.652344 C 292.105469 493.035156 299.910156 489.964844 309.332031 483.636719 C 318.886719 477.214844 326.175781 469.828125 332.492188 460.164062 C 355.355469 425.175781 355.296875 376.144531 332.351562 340.9375 C 330.296875 337.785156 325.703125 332.203125 322.140625 328.535156 C 310.050781 316.074219 296.914062 309.015625 281.539062 306.714844 C 274.191406 305.617188 162.730469 305.726562 162.308594 306.832031 M 175.070312 319.054688 C 174.542969 320.433594 174.542969 479.566406 175.070312 480.945312 C 175.433594 481.894531 180.664062 482 227.363281 482 C 271.59375 482 279.921875 481.847656 283.792969 480.976562 C 294.425781 478.582031 302.066406 474.429688 310.371094 466.542969 C 325.78125 451.90625 334.5 432.800781 336.730469 408.785156 C 339.574219 378.136719 327.46875 346.703125 306.429688 330.105469 C 301.652344 326.335938 295.0625 322.601562 290.332031 320.980469 C 281.878906 318.085938 280.054688 318 226.570312 318 C 180.59375 318 175.433594 318.105469 175.070312 319.054688 M 186.980469 332.148438 C 186.800781 332.617188 186.734375 363.75 186.828125 401.332031 L 187 469.667969 L 232.695312 469.839844 C 275.492188 469.996094 278.6875 469.929688 283.128906 468.765625 C 295.441406 465.53125 307.320312 454.707031 315.234375 439.515625 C 322.6875 425.203125 325.609375 405.5 322.960938 387.417969 C 319.183594 361.605469 304.550781 340.261719 285.984375 333.484375 L 281 331.667969 L 234.152344 331.484375 C 196.644531 331.335938 187.238281 331.46875 186.980469 332.148438 M 200.316406 344.148438 C 200.136719 344.617188 200.066406 370.050781 200.160156 400.667969 L 200.332031 456.332031 L 281 456.332031 L 284.960938 454.332031 C 297.609375 447.941406 307.484375 431.808594 310.339844 412.867188 C 314.734375 383.722656 303.835938 355.164062 284.761719 345.832031 L 280.332031 343.667969 L 240.488281 343.480469 C 208.585938 343.332031 200.574219 343.464844 200.316406 344.148438 M 630.667969 463.988281 L 630.667969 533.976562 L 632.179688 534.355469 C 633.011719 534.5625 635.789062 534.644531 638.347656 534.535156 L 643 534.332031 L 643.171875 464.167969 L 643.339844 394 L 630.667969 394 L 630.667969 463.988281 M 654.164062 464.140625 L 654.332031 534.332031 L 666.332031 534.332031 L 666.332031 394.332031 L 660.164062 394.140625 L 653.992188 393.949219 L 654.164062 464.140625 M 677.496094 464.140625 L 677.667969 534.332031 L 689.667969 534.332031 L 689.667969 394.332031 L 683.496094 394.140625 L 677.328125 393.949219 L 677.496094 464.140625 " />
  </g>
</svg>