<?xml version="1.0" encoding="UTF-8"?>
<!DOCTYPE svg PUBLIC "-//W3C//DTD SVG 1.1//EN" "http://www.w3.org/Graphics/SVG/1.1/DTD/svg11.dtd">
<svg xmlns="http://www.w3.org/2000/svg" version="1.1" width="1200px" height="1200px" style="shape-rendering:geometricPrecision; text-rendering:geometricPrecision; image-rendering:optimizeQuality; fill-rule:evenodd; clip-rule:evenodd" xmlns:xlink="http://www.w3.org/1999/xlink">
    <defs>
    <linearGradient id="gradient-fill" gradientUnits="userSpaceOnUse">
      <stop offset="0" stop-color="#ffe5ce" />
      <stop offset="0.14285714285714285" stop-color="#ffdbd0" />
      <stop offset="0.2857142857142857" stop-color="#ffd3d6" />
      <stop offset="0.42857142857142855" stop-color="#f9cdde" />
      <stop offset="0.5714285714285714" stop-color="#ebcae7" />
      <stop offset="0.7142857142857143" stop-color="#d7c8ec" />
      <stop offset="0.8571428571428571" stop-color="#bfc7ed" />
      <stop offset="1" stop-color="#a7c7e7" />
    </linearGradient>
  </defs>
  <path d="M 818.500 382.616 C 769.046 386.615, 720.952 408.285, 684.890 442.816 C 665.054 461.809, 652.212 479.547, 639.507 505.500 C 623.894 537.395, 617.800 563.746, 617.654 600 C 617.502 637.790, 623.799 666.599, 639.408 699.522 C 665.616 754.799, 716.669 795.983, 779 812.128 C 814.111 821.223, 857.128 821.134, 896 811.885 C 906.773 809.322, 927.106 803.019, 928.750 801.733 C 929.736 800.962, 930 778.584, 930 695.840 L 930 590.925 920.750 591.212 L 911.500 591.500 911 635.500 L 910.500 679.500 900 683.700 C 878.021 692.493, 860.139 695.485, 834.058 694.733 C 820.255 694.336, 814.789 693.759, 808.500 692.036 C 787.152 686.190, 768.499 674.622, 758.537 661.051 C 750.548 650.167, 745.135 636.983, 742.494 621.972 C 740.609 611.265, 740.571 591.416, 742.417 581.772 C 749.588 544.292, 781.764 512.953, 819.215 506.969 C 830.301 505.198, 851.419 506.205, 860.933 508.958 C 880.660 514.666, 898.378 526.436, 910.086 541.611 C 912.372 544.575, 914.643 547, 915.131 547 C 916.514 547, 928.882 538.639, 929.396 537.357 C 929.957 535.960, 920.575 524.266, 913.604 517.673 C 899.495 504.329, 880.637 494.119, 861.473 489.447 C 851.139 486.928, 827.837 486.381, 816.294 488.386 C 774.433 495.656, 740.165 525.514, 727.214 566 C 722.865 579.598, 721.643 589.684, 722.266 606.867 C 723.010 627.396, 726.068 640.242, 734.119 656.658 C 739.134 666.884, 743.311 672.781, 751.252 680.846 C 766.910 696.750, 789.674 708.301, 813.500 712.433 C 825.524 714.518, 851.716 714.494, 866.318 712.385 C 877.810 710.724, 898.008 705.417, 905.577 702.069 C 907.926 701.030, 910.106 700.440, 910.423 700.757 C 910.741 701.074, 911 704.336, 911 708.006 C 911 715.551, 911.720 714.849, 899.084 719.615 C 880.529 726.614, 859.750 730.153, 837 730.190 C 817.833 730.221, 806.567 728.570, 791.340 723.499 C 761.731 713.639, 736.426 693.314, 722.242 668 C 716.144 657.118, 710.856 641.852, 707.864 626.500 C 705.770 615.753, 706.051 584.666, 708.338 574.204 C 713.791 549.248, 725.996 526.873, 743.937 508.942 C 762.063 490.826, 784.055 478.830, 809.204 473.339 C 821.017 470.761, 850.082 470.783, 862 473.381 C 872.036 475.568, 885.308 480.119, 893 484.012 C 909.127 492.172, 928.463 508.003, 938 520.855 C 940.475 524.191, 943.041 526.938, 943.702 526.960 C 945.338 527.014, 958 518.088, 958 516.880 C 958 514.788, 949.208 504.023, 940.094 494.954 C 921.251 476.205, 896.337 462.096, 871.500 456.108 C 856.908 452.591, 847.231 451.701, 829.927 452.286 C 806.219 453.089, 792.282 456.471, 771.179 466.546 C 732.003 485.248, 702.409 521.117, 691.440 563.192 C 688.523 574.384, 687.036 587.179, 687.018 601.257 C 686.914 681.211, 739.466 739.259, 820.500 748.695 C 832.484 750.091, 836.768 750.156, 850.250 749.147 C 867.896 747.826, 885.814 744.549, 900 740.049 C 905.225 738.392, 909.856 737.027, 910.292 737.018 C 910.728 737.008, 910.953 740.452, 910.792 744.670 L 910.500 752.341 903.500 754.630 C 895.740 757.168, 878.536 761.208, 867 763.200 C 855.311 765.219, 815.714 764.905, 805 762.708 C 768.212 755.165, 741.046 741.075, 717.121 717.125 C 700.566 700.554, 688.988 682.478, 681.419 661.385 C 663.049 610.193, 669.280 554.134, 698.276 509.727 C 728.189 463.917, 780.110 436.035, 835.500 436.036 C 873.108 436.037, 908.875 448.503, 938.500 471.933 C 945.958 477.831, 960.884 493.270, 966.204 500.590 C 969.117 504.596, 971.844 507.903, 972.265 507.937 C 973.073 508.003, 983.312 501.576, 986.189 499.197 C 987.739 497.916, 987.454 497.213, 982.725 490.650 C 979.891 486.718, 971.707 477.634, 964.536 470.464 C 934.564 440.493, 897.066 422.511, 854.878 417.880 C 842.183 416.486, 815.771 417.295, 804 419.437 C 765.361 426.469, 733.103 443.559, 704.991 471.893 C 661.055 516.175, 643.261 577.940, 656.127 641.500 C 660.714 664.159, 671.566 689.709, 684.146 707.470 C 691.323 717.602, 711.218 738.279, 721 745.772 C 754.255 771.246, 792.784 783.933, 837.038 783.982 C 860.108 784.007, 879.898 781.368, 901.196 775.426 C 905.979 774.092, 910.141 773, 910.446 773 C 910.751 773, 911 776.173, 911 780.051 C 911 787.077, 910.988 787.107, 907.714 788.475 C 903.310 790.315, 890.832 793.437, 878 795.910 C 810.224 808.970, 744.174 790.636, 696.113 745.424 C 664.929 716.089, 644.194 674.283, 637.871 628 C 636.001 614.313, 636.236 584.977, 638.324 571.378 C 647.305 512.886, 680.571 462.192, 730.145 431.450 C 764.880 409.910, 804.757 399.484, 845 401.418 C 863.009 402.284, 873.365 403.942, 890.085 408.637 C 931.855 420.367, 971.719 448.146, 996.437 482.750 C 998.500 485.637, 1000.601 488, 1001.106 488 C 1002.394 488, 1016 478.862, 1016 477.996 C 1016 476.921, 1006.448 464.304, 1000.331 457.298 C 978.801 432.642, 952.922 413.667, 922.020 399.878 C 908.313 393.761, 887.990 387.789, 871.561 385.049 C 859.142 382.978, 830.350 381.658, 818.500 382.616 M 167.248 600.250 L 167.500 817.500 294 817.798 C 382.327 818.005, 423.367 817.759, 430 816.982 C 481.718 810.923, 533.204 777.698, 563.760 730.663 C 583.748 699.895, 595.840 667.156, 601.123 629.500 C 602.948 616.486, 602.627 581.163, 600.559 567.500 C 596.326 539.532, 589.927 518.896, 578.129 495.161 C 564.927 468.606, 544.505 442.582, 522.761 424.608 C 502.939 408.223, 477.517 394.962, 453.620 388.542 C 432.830 382.956, 434.097 383, 295.119 383 L 166.995 383 167.248 600.250 M 186.693 402.640 C 185.550 403.784, 185.853 798.784, 186.998 799.167 C 187.547 799.350, 242.784 799.261, 309.748 798.969 C 444.234 798.382, 434.469 798.855, 455.500 791.915 C 467.474 787.964, 488.631 777.478, 498.311 770.697 C 525.570 751.603, 545.819 727.370, 560.973 695.704 C 576.436 663.395, 582.409 636.867, 582.409 600.500 C 582.409 573.851, 580.033 557.616, 572.858 535.216 C 550.934 466.771, 502.836 419.604, 439.849 404.777 C 430.527 402.583, 430.152 402.576, 308.943 402.262 C 242.087 402.088, 187.075 402.259, 186.693 402.640 M 206.250 420.662 C 205.257 421.063, 205 457.982, 205 600.564 L 205 779.962 207.338 780.549 C 208.624 780.871, 258.462 780.946, 318.088 780.714 C 422.893 780.306, 426.799 780.223, 435.500 778.246 C 475.044 769.256, 507.003 746.740, 531.427 710.660 C 546.760 688.011, 557.279 660.385, 562.140 630 C 563.937 618.767, 563.948 582.336, 562.157 571 C 555.418 528.334, 537.160 491.270, 509.312 463.722 C 483.238 437.930, 454.007 424.044, 419.500 421.059 C 407.467 420.018, 208.763 419.648, 206.250 420.662 M 224.478 441.209 C 224.207 441.919, 224.102 514.275, 224.243 602 L 224.500 761.500 319.500 761.773 C 401.067 762.008, 416.013 761.827, 425.200 760.496 C 452.268 756.574, 474.558 744.823, 496.054 723.144 C 520.481 698.509, 534.390 670.702, 542.147 631 C 544.194 620.519, 543.844 579.691, 541.611 568.500 C 537.597 548.392, 532.951 534.772, 524.490 518.311 C 516.135 502.057, 507.844 490.680, 495.079 477.953 C 476.151 459.082, 454.938 447.262, 431 442.249 C 424.551 440.898, 409.588 440.625, 324.234 440.298 C 243.790 439.990, 224.876 440.163, 224.478 441.209 M 243.462 460.250 C 243.200 460.938, 243.102 524.725, 243.243 602 L 243.500 742.500 329 742.801 C 388.648 743.010, 416.768 742.761, 422 741.977 C 438.159 739.554, 449.868 734.948, 464 725.453 C 478.331 715.825, 489.264 704.744, 498.737 690.248 C 533.034 637.762, 532.947 564.215, 498.525 511.408 C 495.443 506.680, 488.552 498.307, 483.211 492.803 C 465.077 474.113, 445.371 463.523, 422.308 460.075 C 411.285 458.427, 244.093 458.590, 243.462 460.250 M 262.607 478.582 C 261.814 480.649, 261.814 719.351, 262.607 721.418 C 263.153 722.842, 270.996 723, 341.045 723 C 407.390 723, 419.881 722.773, 425.688 721.465 C 441.641 717.871, 453.102 711.647, 465.555 699.817 C 488.674 677.857, 501.751 649.203, 505.094 613.180 C 509.361 567.204, 491.203 520.053, 459.644 495.156 C 452.479 489.505, 442.591 483.900, 435.500 481.472 C 422.821 477.130, 420.083 477.002, 339.857 477.001 C 270.890 477, 263.153 477.158, 262.607 478.582 M 280.471 498.224 C 280.203 498.926, 280.101 545.625, 280.242 602 L 280.500 704.500 349.042 704.757 C 413.236 704.997, 418.034 704.895, 424.696 703.146 C 443.163 698.298, 460.983 682.063, 472.849 659.275 C 484.030 637.803, 488.415 608.252, 484.444 581.128 C 478.776 542.408, 456.825 510.392, 428.977 500.229 L 421.500 497.500 351.229 497.224 C 294.967 497.003, 280.860 497.202, 280.471 498.224 M 300.472 516.220 C 300.203 516.924, 300.100 555.075, 300.242 601 L 300.500 684.500 361 684.500 L 421.500 684.500 427.439 681.500 C 446.413 671.915, 461.229 647.711, 465.511 619.303 C 472.101 575.583, 455.756 532.749, 427.141 518.749 L 420.500 515.500 360.730 515.220 C 312.881 514.996, 300.863 515.195, 300.472 516.220 M 946 695.981 L 946 800.962 948.271 801.532 C 949.520 801.845, 953.682 801.966, 957.521 801.801 L 964.500 801.500 964.755 696.250 L 965.009 591 955.505 591 L 946 591 946 695.981 M 981.245 696.212 L 981.500 801.500 990.500 801.500 L 999.500 801.500 999.500 696.500 L 999.500 591.500 990.245 591.212 L 980.991 590.925 981.245 696.212 M 1016.245 696.212 L 1016.500 801.500 1025.500 801.500 L 1034.500 801.500 1034.500 696.500 L 1034.500 591.500 1025.245 591.212 L 1015.991 590.925 1016.245 696.212" stroke="none" fill="url(#gradient-fill)" fill-rule="evenodd" />
</svg>